# xmcd
#
# Track frame offsets:
#	150
#	76515
#	107742
#	171521
#	195295
#
# Disc length: 2789 seconds
#
# Revision: 0
# Processed by: cddbd v1.5.2PL0 Copyright (c) Steve Scherf et al.
# Submitted via: audiograbber 1.83.01
#
DISCID=300ae305
DTITLE=Grateful Dead - 94-06-18 Autzen Stadium, Eugene OR
DYEAR=1900
DGENRE=
TTITLE0=Space
TTITLE1=The Last Time
TTITLE2=Days Between
TTITLE3=One More Saturday Night
TTITLE4=I Fought The Law
EXTD=
EXTT0=
EXTT1=
EXTT2=
EXTT3=
EXTT4=
PLAYORDER=
